<svg width="81" height="23" viewBox="0 0 81 23" fill="none" xmlns="http://www.w3.org/2000/svg">
<path d="M2.52667 20.9465L10.9212 3.66406C10.9212 3.66406 3.57596 7.00905 2.00199 10.9115C0.428017 14.814 0.927102 18.4038 2.00201 20.9465" stroke="#499A18" stroke-linecap="round" stroke-linejoin="round"/>
<path d="M1.99646 20.9925C1.99646 20.9925 27.7102 -8.60087 19.3157 4.2216C10.9212 17.0441 20.1707 6.63145 15.4973 14.0678C10.824 21.5041 1.99646 20.9925 1.99646 20.9925Z" stroke="#499A18" stroke-linejoin="round"/>
<path d="M26.9264 9.8415C28.2811 9.8415 29.2837 10.0655 29.9344 10.5135C30.5957 10.9508 30.9264 11.7295 30.9264 12.8495C30.9264 13.9695 30.6011 14.8602 29.9504 15.5215C29.2997 16.1722 28.2491 16.4975 26.7984 16.4975H25.4544L25.4064 19.9695L26.6544 20.0815C26.6544 20.3802 26.5637 20.7002 26.3824 21.0415H22.7824L22.7344 20.4975C23.1824 20.3268 23.6411 20.1988 24.1104 20.1135C24.0464 15.9535 23.9931 12.8602 23.9504 10.8335C23.6624 10.7802 23.1931 10.6522 22.5424 10.4495L22.6224 9.8415H26.9264ZM26.6384 15.4575C27.5557 15.4468 28.2544 15.2175 28.7344 14.7695C29.2144 14.3108 29.4544 13.7082 29.4544 12.9615C29.4544 12.2148 29.2197 11.6975 28.7504 11.4095C28.2811 11.1108 27.5291 10.9615 26.4944 10.9615C26.3024 10.9615 25.9771 10.9668 25.5184 10.9775C25.5184 10.9882 25.5024 12.4868 25.4704 15.4735L26.6384 15.4575ZM33.9855 9.1535C34.3162 9.1535 34.5508 9.16417 34.6895 9.1855C34.6895 9.55884 34.6202 9.9855 34.4815 10.4655C34.3855 16.7588 34.3375 19.9215 34.3375 19.9535L35.6815 20.0815C35.6815 20.3802 35.5908 20.7002 35.4095 21.0415H31.7295L31.6815 20.4815C32.1722 20.3108 32.6522 20.1828 33.1215 20.0975L32.9615 10.4175C32.3748 10.3855 31.9055 10.3215 31.5535 10.2255L31.6175 9.3935C32.1615 9.2335 32.9508 9.1535 33.9855 9.1535ZM42.9763 15.8095L42.8963 19.9375C43.3549 19.9695 43.8136 20.0442 44.2723 20.1615L44.2403 20.7215C44.0696 20.8068 43.7603 20.9028 43.3123 21.0095C42.8749 21.1055 42.4429 21.1535 42.0163 21.1535C41.8243 20.7695 41.7176 20.4015 41.6963 20.0495C40.4803 20.8495 39.6269 21.2495 39.1363 21.2495C38.3789 21.2495 37.7709 21.0468 37.3123 20.6415C36.8536 20.2362 36.6243 19.6708 36.6243 18.9455C36.6243 17.2708 37.6483 16.4068 39.6963 16.3535C40.8909 16.3215 41.4936 16.3055 41.5043 16.3055L41.4883 15.7615C41.4669 15.0255 41.3283 14.4975 41.0723 14.1775C40.8163 13.8468 40.3576 13.6815 39.6963 13.6815C39.4189 13.6815 39.1203 13.7455 38.8003 13.8735L38.4163 15.4735C38.3629 15.4842 38.2723 15.4895 38.1443 15.4895L37.4883 15.4415C37.3176 14.9828 37.2269 14.3482 37.2163 13.5375C37.4189 13.4308 37.8829 13.2708 38.6083 13.0575C39.3336 12.8335 39.7976 12.7215 40.0003 12.7215C41.0883 12.7215 41.8563 12.9615 42.3043 13.4415C42.7523 13.9215 42.9763 14.7108 42.9763 15.8095ZM39.4883 20.1615C39.7976 20.1615 40.5123 19.8148 41.6323 19.1215L41.5523 17.1215C40.8269 17.1855 40.2189 17.2442 39.7283 17.2975C39.2376 17.3508 38.8429 17.4948 38.5443 17.7295C38.2456 17.9535 38.0963 18.3108 38.0963 18.8015C38.0963 19.7082 38.5603 20.1615 39.4883 20.1615ZM50.1613 12.7215C51.1853 12.7215 51.9266 12.9775 52.3853 13.4895C52.8439 13.9908 53.0733 14.7588 53.0733 15.7935C53.0733 16.0922 53.0306 17.4788 52.9453 19.9535L54.2893 20.0815C54.2893 20.3802 54.1986 20.7002 54.0173 21.0415H50.3373L50.2893 20.4815C50.7799 20.3108 51.2599 20.1828 51.7293 20.0975C51.6653 17.3028 51.6066 15.7508 51.5533 15.4415C51.5106 15.1215 51.4359 14.8442 51.3293 14.6095C51.2226 14.3748 51.0626 14.2095 50.8493 14.1135C50.6359 14.0175 50.3533 13.9695 50.0013 13.9695C49.2973 13.9695 48.6146 14.1402 47.9533 14.4815C47.8893 16.9135 47.8466 18.7375 47.8253 19.9535L49.1693 20.0815C49.1693 20.3802 49.0786 20.7002 48.8973 21.0415H45.2173L45.1693 20.4815C45.6599 20.3108 46.1399 20.1828 46.6093 20.0975C46.5453 17.3882 46.4919 15.3828 46.4493 14.0815C45.8626 14.0495 45.3933 13.9855 45.0413 13.8895L45.1053 13.0575C45.6813 12.8975 46.5186 12.8175 47.6173 12.8175C47.7453 13.0095 47.8413 13.2868 47.9053 13.6495C48.3639 13.4042 48.8226 13.1908 49.2813 13.0095C49.7506 12.8175 50.0439 12.7215 50.1613 12.7215ZM56.2126 20.0495L56.0846 14.0175H54.8526L54.8046 13.4575C54.9113 13.3828 55.2206 13.2442 55.7326 13.0415L57.0446 10.9935C57.258 11.0148 57.4233 11.0682 57.5406 11.1535L57.5246 12.9135C58.3246 12.9135 58.9806 12.9668 59.4926 13.0735C59.4926 13.3615 59.402 13.6762 59.2206 14.0175H57.4926C57.4713 15.2975 57.45 17.2388 57.4286 19.8415C58.026 19.8735 58.6233 19.9802 59.2206 20.1615L59.2046 20.7215C59.0553 20.8175 58.6713 20.9295 58.0526 21.0575C57.4446 21.1855 56.9433 21.2495 56.5486 21.2495C56.4953 21.1642 56.426 20.9828 56.3406 20.7055C56.2553 20.4175 56.2126 20.1988 56.2126 20.0495ZM61.9191 20.0175C62.2925 20.1775 62.7458 20.2575 63.2791 20.2575C63.8231 20.2575 64.2498 20.1562 64.5591 19.9535C64.8685 19.7508 65.0231 19.4735 65.0231 19.1215C65.0231 18.7695 64.8791 18.4762 64.5911 18.2415C64.3031 18.0068 63.9511 17.7988 63.5351 17.6175C63.1191 17.4362 62.7031 17.2442 62.2871 17.0415C61.8711 16.8388 61.5191 16.5722 61.2311 16.2415C60.9431 15.9108 60.7991 15.5268 60.7991 15.0895C60.7991 14.3535 61.0445 13.7775 61.5351 13.3615C62.0258 12.9348 62.7031 12.7215 63.5671 12.7215C64.4418 12.7215 65.2631 12.9188 66.0311 13.3135C66.0418 13.4202 66.0471 13.7082 66.0471 14.1775C66.0471 14.6362 65.9991 15.0308 65.9031 15.3615C65.6471 15.4468 65.3431 15.4895 64.9911 15.4895L64.4631 13.8575C64.2285 13.7402 63.9085 13.6815 63.5031 13.6815C63.1085 13.6815 62.7938 13.7882 62.5591 14.0015C62.3245 14.2042 62.2071 14.4655 62.2071 14.7855C62.2071 15.0948 62.3511 15.3668 62.6391 15.6015C62.9378 15.8362 63.2951 16.0495 63.7111 16.2415C64.1271 16.4228 64.5431 16.6202 64.9591 16.8335C65.3751 17.0362 65.7271 17.3082 66.0151 17.6495C66.3138 17.9802 66.4631 18.3642 66.4631 18.8015C66.4631 19.5695 66.1645 20.1722 65.5671 20.6095C64.9805 21.0362 64.2551 21.2495 63.3911 21.2495C62.9218 21.2495 62.4205 21.1748 61.8871 21.0255C61.3538 20.8655 60.9058 20.6628 60.5431 20.4175C60.5431 19.7028 60.6071 19.0682 60.7351 18.5135C60.9805 18.4708 61.3111 18.4495 61.7271 18.4495L61.9191 20.0175Z" fill="black"/>
</svg>
